<?xml version="1.0" standalone="no"?><!DOCTYPE svg PUBLIC "-//W3C//DTD SVG 1.1//EN" "http://www.w3.org/Graphics/SVG/1.1/DTD/svg11.dtd"><svg t="1783486492249" class="icon" viewBox="0 0 1024 1024" version="1.1" xmlns="http://www.w3.org/2000/svg" p-id="6198" xmlns:xlink="http://www.w3.org/1999/xlink" width="200" height="200"><path d="M213.333333 85.333333h170.666667v85.333334H298.666667v85.333333H213.333333V85.333333zM213.333333 512H128V256h85.333333v256zM298.666667 597.333333H213.333333v-85.333333h85.333334v85.333333z" p-id="6199"></path><path d="M384 682.666667v-85.333334H298.666667v85.333334H128v-85.333334H42.666667v85.333334h85.333333v85.333333h170.666667v170.666667h85.333333v-170.666667h85.333333v-85.333333H384z m0 0v85.333333H298.666667v-85.333333h85.333333z" p-id="6200"></path><path d="M640 170.666667v85.333333H384V170.666667h256zM810.666667 256h-85.333334V170.666667h-85.333333V85.333333h170.666667v170.666667zM810.666667 512V256h85.333333v256h-85.333333zM725.333333 597.333333v-85.333333h85.333334v85.333333h-85.333334zM640 682.666667v-85.333334h85.333333v85.333334h-85.333333zM640 768h-85.333333v-85.333333h85.333333v85.333333zM640 768h85.333333v170.666667h-85.333333v-170.666667z" p-id="6201"></path></svg>