<?xml version="1.0" encoding="UTF-8"?>
<svg xmlns="http://www.w3.org/2000/svg" width="32" height="32" viewBox="0 0 32 32" shape-rendering="crispEdges">
  <path fill="#78A5DA" fill-opacity="0.937" d="M15 2h2v1h-2zM17 3h1v1h-1zM18 4h1v1h-1zM19 5h1v1h-1zM27 5h1v1h-1zM19 6h1v1h-1zM26 6h1v1h-1zM28 6h1v1h-1zM20 7h1v1h-1zM27 7h1v1h-1zM21 8h1v1h-1zM22 9h1v1h-1zM23 10h1v1h-1zM24 11h1v1h-1zM27 15h1v1h-1zM28 16h1v1h-1zM2 17h1v1h-1zM29 17h1v1h-1zM2 18h1v1h-1zM3 19h1v1h-1zM4 20h2v1h-2zM6 21h1v1h-1zM7 22h1v1h-1zM8 23h2v1h-2zM10 24h1v1h-1zM15 28h2v1h-2z"/>
  <path fill="#C9E3FD" fill-opacity="0.937" d="M14 3h1v1h-1zM13 4h1v1h-1zM12 5h1v1h-1zM12 6h1v1h-1zM11 7h1v1h-1zM10 8h1v1h-1zM9 9h1v1h-1zM8 10h1v1h-1zM7 11h1v1h-1zM6 12h1v1h-1zM25 12h1v1h-1zM6 13h1v1h-1zM25 13h1v1h-1zM5 14h1v1h-1zM26 14h1v1h-1zM4 15h1v1h-1zM3 16h1v1h-1zM28 19h1v1h-1zM26 20h2v1h-2zM25 21h1v1h-1zM24 22h1v1h-1zM22 23h2v1h-2zM21 24h1v1h-1zM11 25h1v1h-1zM20 25h1v1h-1zM12 26h2v1h-2zM18 26h2v1h-2zM14 27h1v1h-1zM17 27h1v1h-1z"/>
  <path fill="#4862BC" fill-opacity="0.961" d="M29 18h1v1h-1z"/>
  <path fill="#C4DFFA" fill-opacity="0.996" d="M5 2h1v1h-1zM4 3h1v1h-1zM6 3h1v1h-1zM3 4h2v1h-2zM6 4h2v1h-2zM2 5h1v1h-1zM5 5h1v1h-1zM8 5h1v1h-1zM3 6h2v1h-2zM6 6h2v1h-2zM4 7h1v1h-1zM6 7h1v1h-1zM5 8h1v1h-1z"/>
  <path fill="#84D7C9" d="M4 18h1v1h-1z"/>
  <path fill="#8985C2" d="M26 17h1v1h-1zM27 18h1v1h-1z"/>
  <path fill="#8D8AC5" d="M16 4h1v1h-1zM16 5h1v1h-1zM16 6h1v1h-1zM16 8h1v1h-1z"/>
  <path fill="#9ADED2" d="M6 18h1v1h-1z"/>
  <path fill="#A3A1CC" d="M16 13h1v1h-1zM16 14h1v1h-1z"/>
  <path fill="#A4D496" d="M10 15h1v1h-1zM6 17h1v1h-1z"/>
  <path fill="#A6A5CE" d="M16 7h1v1h-1zM16 9h1v1h-1zM16 20h1v1h-1z"/>
  <path fill="#A8A6D2" d="M28 17h1v1h-1z"/>
  <path fill="#A9DDBB" d="M5 18h1v1h-1z"/>
  <path fill="#ADABD5" d="M16 10h1v1h-1z"/>
  <path fill="#B4DBA8" d="M13 14h1v1h-1zM12 15h1v1h-1zM9 16h1v1h-1zM11 16h1v1h-1zM7 17h2v1h-2z"/>
  <path fill="#B9C7D8" d="M16 21h1v1h-1zM16 22h1v1h-1zM16 23h1v1h-1z"/>
  <path fill="#B9E8E0" d="M7 19h1v1h-1zM9 19h2v1h-2zM7 20h2v1h-2z"/>
  <path fill="#BAB8DC" d="M17 4h1v1h-1z"/>
  <path fill="#BDB8E2" d="M17 13h1v1h-1zM25 16h1v1h-1zM24 17h1v1h-1z"/>
  <path fill="#BFBBE3" d="M17 5h1v1h-1zM17 6h1v1h-1zM17 7h1v1h-1zM17 8h1v1h-1zM17 9h1v1h-1z"/>
  <path fill="#BFBEDC" d="M16 11h1v1h-1zM16 12h1v1h-1z"/>
  <path fill="#C2E7D1" d="M9 18h1v1h-1zM11 18h1v1h-1zM13 18h1v1h-1z"/>
  <path fill="#C3E284" d="M11 14h1v1h-1zM7 16h1v1h-1z"/>
  <path fill="#C3E7D0" d="M7 18h1v1h-1zM6 19h1v1h-1zM8 19h1v1h-1z"/>
  <path fill="#C7EEF5" d="M22 15h1v1h-1zM21 16h1v1h-1z"/>
  <path fill="#CAE5DF" d="M15 13h1v1h-1zM15 14h1v1h-1z"/>
  <path fill="#CBE6C3" d="M14 15h1v1h-1zM13 16h2v1h-2zM9 17h6v1h-6zM8 18h1v1h-1zM10 18h1v1h-1z"/>
  <path fill="#CC9DFF" d="M24 15h1v1h-1z"/>
  <path fill="#CCC9F0" d="M25 17h1v1h-1zM27 17h1v1h-1z"/>
  <path fill="#CDC8E1" d="M11 23h1v1h-1zM12 24h1v1h-1zM14 25h1v1h-1z"/>
  <path fill="#CDCCE5" d="M16 3h1v1h-1zM26 15h1v1h-1zM27 16h1v1h-1z"/>
  <path fill="#CDD7E3" d="M16 24h1v1h-1zM16 25h1v1h-1zM16 26h1v1h-1z"/>
  <path fill="#CED2D5" d="M12 19h1v1h-1zM9 20h1v1h-1zM11 20h1v1h-1zM8 21h1v1h-1zM10 21h1v1h-1z"/>
  <path fill="#CEE799" d="M8 15h1v1h-1zM4 17h1v1h-1z"/>
  <path fill="#D0E57F" d="M8 16h1v1h-1z"/>
  <path fill="#D1CEEB" d="M18 7h1v1h-1zM18 8h2v1h-2zM18 9h2v1h-2zM17 10h3v1h-3zM17 11h2v1h-2zM17 12h2v1h-2z"/>
  <path fill="#D58CFF" d="M23 15h1v1h-1z"/>
  <path fill="#D5F1EC" d="M5 19h1v1h-1z"/>
  <path fill="#D6D2F2" d="M19 18h1v1h-1zM21 18h6v1h-6zM19 19h4v1h-4z"/>
  <path fill="#D7D4F3" d="M17 19h2v1h-2zM17 20h1v1h-1zM17 22h1v1h-1z"/>
  <path fill="#D8EA95" d="M14 14h1v1h-1zM11 15h1v1h-1zM13 15h1v1h-1zM10 16h1v1h-1z"/>
  <path fill="#D8F3F8" d="M23 14h1v1h-1z"/>
  <path fill="#D9DEE7" d="M11 22h1v1h-1zM14 22h1v1h-1zM12 23h1v1h-1zM13 24h2v1h-2z"/>
  <path fill="#DACEC5" d="M12 18h1v1h-1zM14 18h1v1h-1z"/>
  <path fill="#DAEDE9" d="M15 4h1v1h-1zM15 5h1v1h-1zM15 6h1v1h-1zM15 7h1v1h-1zM15 8h1v1h-1zM15 9h1v1h-1zM15 10h1v1h-1zM15 11h1v1h-1zM15 12h1v1h-1zM15 15h1v1h-1zM15 16h1v1h-1zM15 20h1v1h-1zM15 21h1v1h-1zM15 22h1v1h-1zM15 23h1v1h-1zM15 24h1v1h-1zM15 25h1v1h-1zM15 26h1v1h-1z"/>
  <path fill="#DBEDB5" d="M14 13h1v1h-1z"/>
  <path fill="#DCF4FB" d="M20 16h1v1h-1zM17 17h3v1h-3z"/>
  <path fill="#DDEEB9" d="M12 13h1v1h-1zM5 16h1v1h-1z"/>
  <path fill="#E0C4FF" d="M25 14h1v1h-1z"/>
  <path fill="#E0DEF6" d="M28 18h1v1h-1z"/>
  <path fill="#E0FFFC" d="M21 15h1v1h-1zM19 16h1v1h-1z"/>
  <path fill="#E1DEED" d="M10 23h1v1h-1zM11 24h1v1h-1zM12 25h2v1h-2zM14 26h1v1h-1z"/>
  <path fill="#E1E7EE" d="M16 27h1v1h-1z"/>
  <path fill="#E2AFFF" d="M24 14h1v1h-1z"/>
  <path fill="#E2E0F6" d="M26 16h1v1h-1zM23 19h3v1h-3zM19 20h1v1h-1zM21 20h1v1h-1zM23 20h1v1h-1zM18 21h1v1h-1zM20 21h1v1h-1zM22 21h1v1h-1zM19 22h1v1h-1z"/>
  <path fill="#E2F0EC" d="M14 21h1v1h-1zM13 22h1v1h-1zM14 23h1v1h-1z"/>
  <path fill="#E3E1F3" d="M18 6h1v1h-1z"/>
  <path fill="#E4F0B6" d="M12 16h1v1h-1z"/>
  <path fill="#E6D1D9" d="M13 21h1v1h-1zM12 22h1v1h-1zM13 23h1v1h-1z"/>
  <path fill="#E7F7FA" d="M24 13h1v1h-1z"/>
  <path fill="#E8CEF5" d="M22 16h1v1h-1zM24 16h1v1h-1zM20 17h1v1h-1z"/>
  <path fill="#E8F2B3" d="M9 14h1v1h-1zM6 15h1v1h-1z"/>
  <path fill="#E8F4F1" d="M15 3h1v1h-1zM15 27h1v1h-1z"/>
  <path fill="#EAB6C8" d="M11 19h1v1h-1zM13 19h1v1h-1zM10 20h1v1h-1zM12 20h2v1h-2zM9 21h1v1h-1zM11 21h2v1h-2zM10 22h1v1h-1z"/>
  <path fill="#EAFFFD" d="M23 12h1v1h-1zM21 13h3v1h-3zM21 14h1v1h-1z"/>
  <path fill="#EBFAFE" d="M17 18h1v1h-1z"/>
  <path fill="#EBFFE2" d="M19 14h2v1h-2zM19 15h1v1h-1z"/>
  <path fill="#ECFCFD" d="M16 19h1v1h-1z"/>
  <path fill="#EDECF9" d="M27 19h1v1h-1z"/>
  <path fill="#F0EDFB" d="M18 20h1v1h-1zM17 21h1v1h-1zM18 22h1v1h-1zM17 23h2v1h-2zM17 24h2v1h-2zM17 25h1v1h-1z"/>
  <path fill="#F1EDEE" d="M14 20h1v1h-1z"/>
  <path fill="#F1EFF4" d="M16 18h1v1h-1z"/>
  <path fill="#F1FFEB" d="M22 11h1v1h-1zM21 12h1v1h-1zM20 13h1v1h-1z"/>
  <path fill="#F2D3DE" d="M7 21h1v1h-1zM8 22h2v1h-2z"/>
  <path fill="#F2FFF2" d="M18 16h1v1h-1z"/>
  <path fill="#F2FFF3" d="M20 15h1v1h-1z"/>
  <path fill="#F2FFFD" d="M23 11h1v1h-1zM24 12h1v1h-1z"/>
  <path fill="#F4F2FC" d="M20 20h1v1h-1zM22 20h1v1h-1zM24 20h1v1h-1zM19 21h1v1h-1zM21 21h1v1h-1zM23 21h1v1h-1zM20 22h2v1h-2zM19 23h2v1h-2zM19 24h1v1h-1z"/>
  <path fill="#F4FDFE" d="M23 17h1v1h-1zM18 18h1v1h-1zM20 18h1v1h-1z"/>
  <path fill="#F5F56A" d="M13 13h1v1h-1zM12 14h1v1h-1zM9 15h1v1h-1zM5 17h1v1h-1z"/>
  <path fill="#F5F8F6" d="M15 19h1v1h-1z"/>
  <path fill="#F5FEFE" d="M15 18h1v1h-1z"/>
  <path fill="#F6DEFF" d="M23 16h1v1h-1zM22 17h1v1h-1z"/>
  <path fill="#F6F4FC" d="M18 25h1v1h-1z"/>
  <path fill="#F6FFF3" d="M22 10h1v1h-1z"/>
  <path fill="#F6FFF7" d="M22 12h1v1h-1zM22 14h1v1h-1z"/>
  <path fill="#F7F3FA" d="M18 5h1v1h-1z"/>
  <path fill="#F7F784" d="M6 16h1v1h-1z"/>
  <path fill="#F8F7FD" d="M26 19h1v1h-1zM25 20h1v1h-1zM24 21h1v1h-1zM22 22h2v1h-2zM21 23h1v1h-1zM20 24h1v1h-1zM19 25h1v1h-1zM17 26h1v1h-1z"/>
  <path fill="#F9E8FF" d="M25 15h1v1h-1z"/>
  <path fill="#F9EAFF" d="M21 17h1v1h-1z"/>
  <path fill="#F9F9AA" d="M14 9h1v1h-1zM13 10h1v1h-1zM10 11h1v1h-1zM12 11h1v1h-1zM14 11h1v1h-1zM9 12h1v1h-1zM11 12h3v1h-3zM8 13h4v1h-4zM7 14h2v1h-2zM10 14h1v1h-1zM7 15h1v1h-1z"/>
  <path fill="#F9FBFD" d="M14 19h1v1h-1z"/>
  <path fill="#FBDCAA" d="M12 10h1v1h-1zM14 10h1v1h-1zM11 11h1v1h-1zM13 11h1v1h-1zM8 12h1v1h-1zM10 12h1v1h-1z"/>
  <path fill="#FBE1AA" d="M12 8h1v1h-1zM14 8h1v1h-1zM11 9h1v1h-1zM13 9h1v1h-1zM10 10h1v1h-1zM9 11h1v1h-1z"/>
  <path fill="#FBFBCC" d="M14 12h1v1h-1zM7 13h1v1h-1zM6 14h1v1h-1zM5 15h1v1h-1zM4 16h1v1h-1zM3 17h1v1h-1z"/>
  <path fill="#FCFDEA" d="M4 19h1v1h-1zM6 20h1v1h-1z"/>
  <path fill="#FDC4AA" d="M14 5h1v1h-1zM14 6h1v1h-1zM13 7h2v1h-2zM13 8h1v1h-1zM12 9h1v1h-1zM11 10h1v1h-1z"/>
  <path fill="#FDDBCC" d="M14 4h1v1h-1zM13 5h1v1h-1zM13 6h1v1h-1zM12 7h1v1h-1zM11 8h1v1h-1zM10 9h1v1h-1zM9 10h1v1h-1zM8 11h1v1h-1zM7 12h1v1h-1z"/>
  <path fill="#FDFDBB" d="M3 18h1v1h-1z"/>
  <path fill="#FFC1D8" d="M18 13h1v1h-1zM17 15h1v1h-1z"/>
  <path fill="#FFCFE4" d="M16 15h1v1h-1z"/>
  <path fill="#FFD4E4" d="M20 10h1v1h-1zM19 12h1v1h-1z"/>
  <path fill="#FFDBF0" d="M17 14h1v1h-1z"/>
  <path fill="#FFDFBB" d="M16 16h1v1h-1z"/>
  <path fill="#FFE5EE" d="M21 9h1v1h-1z"/>
  <path fill="#FFE6F4" d="M20 9h1v1h-1zM19 11h1v1h-1z"/>
  <path fill="#FFE7D8" d="M18 14h1v1h-1zM18 15h1v1h-1z"/>
  <path fill="#FFE9D0" d="M16 17h1v1h-1z"/>
  <path fill="#FFEEE4" d="M21 10h1v1h-1zM20 11h2v1h-2zM20 12h1v1h-1zM19 13h1v1h-1z"/>
  <path fill="#FFF0EE" d="M17 16h1v1h-1z"/>
  <path fill="#FFF0F8" d="M19 7h1v1h-1zM20 8h1v1h-1z"/>
  <path fill="#FFF9E2" d="M15 17h1v1h-1z"/>
</svg>
