<?xml version="1.0" encoding="UTF-8"?>
<svg xmlns="http://www.w3.org/2000/svg" width="32" height="32" viewBox="0 0 32 32" shape-rendering="crispEdges">
  <path fill="#4E4E4E" fill-opacity="0.612" d="M16 3h1v1h-1zM16 4h2v1h-2zM16 5h3v1h-3zM16 6h3v1h-3zM16 7h4v1h-4zM16 8h5v1h-5zM16 9h6v1h-6zM16 10h7v1h-7zM16 11h8v1h-8zM16 12h9v1h-9zM16 13h9v1h-9zM14 14h2v1h-2zM18 14h8v1h-8zM11 15h3v1h-3zM16 15h2v1h-2zM21 15h6v1h-6zM8 16h3v1h-3zM16 16h5v1h-5zM24 16h4v1h-4zM5 17h3v1h-3zM16 17h8v1h-8zM27 17h2v1h-2zM3 18h2v1h-2zM16 18h11v1h-11zM16 19h12v1h-12zM16 20h10v1h-10zM16 21h9v1h-9zM16 22h8v1h-8zM16 23h6v1h-6zM16 24h5v1h-5zM16 25h4v1h-4zM16 26h2v1h-2zM16 27h1v1h-1z"/>
  <path fill="#000000" d="M15 2h2v1h-2zM14 3h1v1h-1zM17 3h1v1h-1zM13 4h1v1h-1zM18 4h1v1h-1zM12 5h1v1h-1zM19 5h1v1h-1zM12 6h1v1h-1zM19 6h1v1h-1zM11 7h1v1h-1zM20 7h1v1h-1zM10 8h1v1h-1zM21 8h1v1h-1zM9 9h1v1h-1zM22 9h1v1h-1zM8 10h1v1h-1zM23 10h1v1h-1zM7 11h1v1h-1zM24 11h1v1h-1zM6 12h1v1h-1zM25 12h1v1h-1zM6 13h1v1h-1zM25 13h1v1h-1zM5 14h1v1h-1zM26 14h1v1h-1zM4 15h1v1h-1zM27 15h1v1h-1zM3 16h1v1h-1zM28 16h1v1h-1zM2 17h1v1h-1zM29 17h1v1h-1zM2 18h1v1h-1zM29 18h1v1h-1zM3 19h1v1h-1zM28 19h1v1h-1zM4 20h2v1h-2zM26 20h2v1h-2zM6 21h1v1h-1zM25 21h1v1h-1zM7 22h1v1h-1zM24 22h1v1h-1zM8 23h2v1h-2zM22 23h2v1h-2zM10 24h1v1h-1zM21 24h1v1h-1zM11 25h1v1h-1zM20 25h1v1h-1zM12 26h2v1h-2zM18 26h2v1h-2zM14 27h1v1h-1zM17 27h1v1h-1zM15 28h2v1h-2z"/>
</svg>
