<?xml version="1.0" encoding="UTF-8"?>
<svg xmlns="http://www.w3.org/2000/svg" width="64" height="64" viewBox="0 0 64 64" shape-rendering="crispEdges">
  <path fill="#78A5DA" fill-opacity="0.937" d="M30 4h4v1h-4zM30 5h4v1h-4zM34 6h2v1h-2zM34 7h2v1h-2zM36 8h2v1h-2zM36 9h2v1h-2zM38 10h2v1h-2zM54 10h2v1h-2zM38 11h2v1h-2zM54 11h2v1h-2zM38 12h2v1h-2zM52 12h2v1h-2zM56 12h2v1h-2zM38 13h2v1h-2zM52 13h2v1h-2zM56 13h2v1h-2zM40 14h2v1h-2zM54 14h2v1h-2zM40 15h2v1h-2zM54 15h2v1h-2zM42 16h2v1h-2zM42 17h2v1h-2zM44 18h2v1h-2zM44 19h2v1h-2zM46 20h2v1h-2zM46 21h2v1h-2zM48 22h2v1h-2zM48 23h2v1h-2zM54 30h2v1h-2zM54 31h2v1h-2zM56 32h2v1h-2zM56 33h2v1h-2zM4 34h2v1h-2zM58 34h2v1h-2zM4 35h2v1h-2zM58 35h2v1h-2zM4 36h2v1h-2zM4 37h2v1h-2zM6 38h2v1h-2zM6 39h2v1h-2zM8 40h4v1h-4zM8 41h4v1h-4zM12 42h2v1h-2zM12 43h2v1h-2zM14 44h2v1h-2zM14 45h2v1h-2zM16 46h4v1h-4zM16 47h4v1h-4zM20 48h2v1h-2zM20 49h2v1h-2zM30 56h4v1h-4zM30 57h4v1h-4z"/>
  <path fill="#C9E3FD" fill-opacity="0.937" d="M28 6h2v1h-2zM28 7h2v1h-2zM26 8h2v1h-2zM26 9h2v1h-2zM24 10h2v1h-2zM24 11h2v1h-2zM24 12h2v1h-2zM24 13h2v1h-2zM22 14h2v1h-2zM22 15h2v1h-2zM20 16h2v1h-2zM20 17h2v1h-2zM18 18h2v1h-2zM18 19h2v1h-2zM16 20h2v1h-2zM16 21h2v1h-2zM14 22h2v1h-2zM14 23h2v1h-2zM12 24h2v1h-2zM50 24h2v1h-2zM12 25h2v1h-2zM50 25h2v1h-2zM12 26h2v1h-2zM50 26h2v1h-2zM12 27h2v1h-2zM50 27h2v1h-2zM10 28h2v1h-2zM52 28h2v1h-2zM10 29h2v1h-2zM52 29h2v1h-2zM8 30h2v1h-2zM8 31h2v1h-2zM6 32h2v1h-2zM6 33h2v1h-2zM56 38h2v1h-2zM56 39h2v1h-2zM52 40h4v1h-4zM52 41h4v1h-4zM50 42h2v1h-2zM50 43h2v1h-2zM48 44h2v1h-2zM48 45h2v1h-2zM44 46h4v1h-4zM44 47h4v1h-4zM42 48h2v1h-2zM42 49h2v1h-2zM22 50h2v1h-2zM40 50h2v1h-2zM22 51h2v1h-2zM40 51h2v1h-2zM24 52h4v1h-4zM36 52h4v1h-4zM24 53h4v1h-4zM36 53h4v1h-4zM28 54h2v1h-2zM34 54h2v1h-2zM28 55h2v1h-2zM34 55h2v1h-2z"/>
  <path fill="#4862BC" fill-opacity="0.961" d="M58 36h2v1h-2zM58 37h2v1h-2z"/>
  <path fill="#C4DFFA" fill-opacity="0.996" d="M10 4h2v1h-2zM10 5h2v1h-2zM8 6h2v1h-2zM12 6h2v1h-2zM8 7h2v1h-2zM12 7h2v1h-2zM6 8h4v1h-4zM12 8h4v1h-4zM6 9h4v1h-4zM12 9h4v1h-4zM4 10h2v1h-2zM10 10h2v1h-2zM16 10h2v1h-2zM4 11h2v1h-2zM10 11h2v1h-2zM16 11h2v1h-2zM6 12h4v1h-4zM12 12h4v1h-4zM6 13h4v1h-4zM12 13h4v1h-4zM8 14h2v1h-2zM12 14h2v1h-2zM8 15h2v1h-2zM12 15h2v1h-2zM10 16h2v1h-2zM10 17h2v1h-2z"/>
  <path fill="#000000" d="M28 4h2v1h-2zM34 4h2v1h-2zM28 5h2v1h-2zM34 5h2v1h-2zM26 6h2v1h-2zM36 6h2v1h-2zM26 7h2v1h-2zM36 7h2v1h-2zM24 8h2v1h-2zM38 8h2v1h-2zM24 9h2v1h-2zM38 9h2v1h-2zM22 10h2v1h-2zM40 10h2v1h-2zM22 11h2v1h-2zM40 11h2v1h-2zM22 12h2v1h-2zM40 12h2v1h-2zM22 13h2v1h-2zM40 13h2v1h-2zM20 14h2v1h-2zM42 14h2v1h-2zM20 15h2v1h-2zM42 15h2v1h-2zM18 16h2v1h-2zM44 16h2v1h-2zM18 17h2v1h-2zM44 17h2v1h-2zM16 18h2v1h-2zM46 18h2v1h-2zM16 19h2v1h-2zM46 19h2v1h-2zM14 20h2v1h-2zM48 20h2v1h-2zM14 21h2v1h-2zM48 21h2v1h-2zM12 22h2v1h-2zM50 22h2v1h-2zM12 23h2v1h-2zM50 23h2v1h-2zM10 24h2v1h-2zM52 24h2v1h-2zM10 25h2v1h-2zM52 25h2v1h-2zM10 26h2v1h-2zM52 26h2v1h-2zM10 27h2v1h-2zM52 27h2v1h-2zM8 28h2v1h-2zM54 28h2v1h-2zM8 29h2v1h-2zM54 29h2v1h-2zM6 30h2v1h-2zM56 30h2v1h-2zM6 31h2v1h-2zM56 31h2v1h-2zM4 32h2v1h-2zM58 32h2v1h-2zM4 33h2v1h-2zM58 33h2v1h-2zM2 34h2v1h-2zM60 34h2v1h-2zM2 35h2v1h-2zM60 35h2v1h-2zM2 36h2v1h-2zM60 36h2v1h-2zM2 37h2v1h-2zM60 37h2v1h-2zM4 38h2v1h-2zM58 38h2v1h-2zM4 39h2v1h-2zM58 39h2v1h-2zM6 40h2v1h-2zM56 40h2v1h-2zM6 41h2v1h-2zM56 41h2v1h-2zM8 42h4v1h-4zM52 42h4v1h-4zM8 43h4v1h-4zM52 43h4v1h-4zM12 44h2v1h-2zM50 44h2v1h-2zM12 45h2v1h-2zM50 45h2v1h-2zM14 46h2v1h-2zM48 46h2v1h-2zM14 47h2v1h-2zM48 47h2v1h-2zM16 48h4v1h-4zM44 48h4v1h-4zM16 49h4v1h-4zM44 49h4v1h-4zM20 50h2v1h-2zM42 50h2v1h-2zM20 51h2v1h-2zM42 51h2v1h-2zM22 52h2v1h-2zM40 52h2v1h-2zM22 53h2v1h-2zM40 53h2v1h-2zM24 54h4v1h-4zM36 54h4v1h-4zM24 55h4v1h-4zM36 55h4v1h-4zM28 56h2v1h-2zM34 56h2v1h-2zM28 57h2v1h-2zM34 57h2v1h-2zM30 58h4v1h-4zM30 59h4v1h-4z"/>
  <path fill="#101010" d="M30 2h4v1h-4zM30 3h4v1h-4z"/>
  <path fill="#84D7C9" d="M8 36h2v1h-2zM8 37h2v1h-2z"/>
  <path fill="#8985C2" d="M52 34h2v1h-2zM52 35h2v1h-2zM54 36h2v1h-2zM54 37h2v1h-2z"/>
  <path fill="#8D8AC5" d="M32 8h2v1h-2zM32 9h2v1h-2zM32 10h2v1h-2zM32 11h2v1h-2zM32 12h2v1h-2zM32 13h2v1h-2zM32 16h2v1h-2zM32 17h2v1h-2z"/>
  <path fill="#9ADED2" d="M12 36h2v1h-2zM12 37h2v1h-2z"/>
  <path fill="#A3A1CC" d="M32 26h2v1h-2zM32 27h2v1h-2zM32 28h2v1h-2zM32 29h2v1h-2z"/>
  <path fill="#A4D496" d="M20 30h2v1h-2zM20 31h2v1h-2zM12 34h2v1h-2zM12 35h2v1h-2z"/>
  <path fill="#A6A5CE" d="M32 14h2v1h-2zM32 15h2v1h-2zM32 18h2v1h-2zM32 19h2v1h-2zM32 40h2v1h-2zM32 41h2v1h-2z"/>
  <path fill="#A8A6D2" d="M56 34h2v1h-2zM56 35h2v1h-2z"/>
  <path fill="#A9DDBB" d="M10 36h2v1h-2zM10 37h2v1h-2z"/>
  <path fill="#ADABD5" d="M32 20h2v1h-2zM32 21h2v1h-2z"/>
  <path fill="#B4DBA8" d="M26 28h2v1h-2zM26 29h2v1h-2zM24 30h2v1h-2zM24 31h2v1h-2zM18 32h2v1h-2zM22 32h2v1h-2zM18 33h2v1h-2zM22 33h2v1h-2zM14 34h4v1h-4zM14 35h4v1h-4z"/>
  <path fill="#B9C7D8" d="M32 42h2v1h-2zM32 43h2v1h-2zM32 44h2v1h-2zM32 45h2v1h-2zM32 46h2v1h-2zM32 47h2v1h-2z"/>
  <path fill="#B9E8E0" d="M14 38h2v1h-2zM18 38h4v1h-4zM14 39h2v1h-2zM18 39h4v1h-4zM14 40h4v1h-4zM14 41h4v1h-4z"/>
  <path fill="#BAB8DC" d="M34 8h2v1h-2zM34 9h2v1h-2z"/>
  <path fill="#BDB8E2" d="M34 26h2v1h-2zM34 27h2v1h-2zM50 32h2v1h-2zM50 33h2v1h-2zM48 34h2v1h-2zM48 35h2v1h-2z"/>
  <path fill="#BFBBE3" d="M34 10h2v1h-2zM34 11h2v1h-2zM34 12h2v1h-2zM34 13h2v1h-2zM34 14h2v1h-2zM34 15h2v1h-2zM34 16h2v1h-2zM34 17h2v1h-2zM34 18h2v1h-2zM34 19h2v1h-2z"/>
  <path fill="#BFBEDC" d="M32 22h2v1h-2zM32 23h2v1h-2zM32 24h2v1h-2zM32 25h2v1h-2z"/>
  <path fill="#C2E7D1" d="M18 36h2v1h-2zM22 36h2v1h-2zM26 36h2v1h-2zM18 37h2v1h-2zM22 37h2v1h-2zM26 37h2v1h-2z"/>
  <path fill="#C3E284" d="M22 28h2v1h-2zM22 29h2v1h-2zM14 32h2v1h-2zM14 33h2v1h-2z"/>
  <path fill="#C3E7D0" d="M14 36h2v1h-2zM14 37h2v1h-2zM12 38h2v1h-2zM16 38h2v1h-2zM12 39h2v1h-2zM16 39h2v1h-2z"/>
  <path fill="#C7EEF5" d="M44 30h2v1h-2zM44 31h2v1h-2zM42 32h2v1h-2zM42 33h2v1h-2z"/>
  <path fill="#CAE5DF" d="M30 26h2v1h-2zM30 27h2v1h-2zM30 28h2v1h-2zM30 29h2v1h-2z"/>
  <path fill="#CBE6C3" d="M28 30h2v1h-2zM28 31h2v1h-2zM26 32h4v1h-4zM26 33h4v1h-4zM18 34h12v1h-12zM18 35h12v1h-12zM16 36h2v1h-2zM20 36h2v1h-2zM16 37h2v1h-2zM20 37h2v1h-2z"/>
  <path fill="#CC9DFF" d="M48 30h2v1h-2zM48 31h2v1h-2z"/>
  <path fill="#CCC9F0" d="M50 34h2v1h-2zM54 34h2v1h-2zM50 35h2v1h-2zM54 35h2v1h-2z"/>
  <path fill="#CDC8E1" d="M22 46h2v1h-2zM22 47h2v1h-2zM24 48h2v1h-2zM24 49h2v1h-2zM28 50h2v1h-2zM28 51h2v1h-2z"/>
  <path fill="#CDCCE5" d="M32 6h2v1h-2zM32 7h2v1h-2zM52 30h2v1h-2zM52 31h2v1h-2zM54 32h2v1h-2zM54 33h2v1h-2z"/>
  <path fill="#CDD7E3" d="M32 48h2v1h-2zM32 49h2v1h-2zM32 50h2v1h-2zM32 51h2v1h-2zM32 52h2v1h-2zM32 53h2v1h-2z"/>
  <path fill="#CED2D5" d="M24 38h2v1h-2zM24 39h2v1h-2zM18 40h2v1h-2zM22 40h2v1h-2zM18 41h2v1h-2zM22 41h2v1h-2zM16 42h2v1h-2zM20 42h2v1h-2zM16 43h2v1h-2zM20 43h2v1h-2z"/>
  <path fill="#CEE799" d="M16 30h2v1h-2zM16 31h2v1h-2zM8 34h2v1h-2zM8 35h2v1h-2z"/>
  <path fill="#D0E57F" d="M16 32h2v1h-2zM16 33h2v1h-2z"/>
  <path fill="#D1CEEB" d="M36 14h2v1h-2zM36 15h2v1h-2zM36 16h4v1h-4zM36 17h4v1h-4zM36 18h4v1h-4zM36 19h4v1h-4zM34 20h6v1h-6zM34 21h6v1h-6zM34 22h4v1h-4zM34 23h4v1h-4zM34 24h4v1h-4zM34 25h4v1h-4z"/>
  <path fill="#D58CFF" d="M46 30h2v1h-2zM46 31h2v1h-2z"/>
  <path fill="#D5F1EC" d="M10 38h2v1h-2zM10 39h2v1h-2z"/>
  <path fill="#D6D2F2" d="M38 36h2v1h-2zM42 36h12v1h-12zM38 37h2v1h-2zM42 37h12v1h-12zM38 38h8v1h-8zM38 39h8v1h-8z"/>
  <path fill="#D7D4F3" d="M34 38h4v1h-4zM34 39h4v1h-4zM34 40h2v1h-2zM34 41h2v1h-2zM34 44h2v1h-2zM34 45h2v1h-2z"/>
  <path fill="#D8EA95" d="M28 28h2v1h-2zM28 29h2v1h-2zM22 30h2v1h-2zM26 30h2v1h-2zM22 31h2v1h-2zM26 31h2v1h-2zM20 32h2v1h-2zM20 33h2v1h-2z"/>
  <path fill="#D8F3F8" d="M46 28h2v1h-2zM46 29h2v1h-2z"/>
  <path fill="#D9DEE7" d="M22 44h2v1h-2zM28 44h2v1h-2zM22 45h2v1h-2zM28 45h2v1h-2zM24 46h2v1h-2zM24 47h2v1h-2zM26 48h4v1h-4zM26 49h4v1h-4z"/>
  <path fill="#DACEC5" d="M24 36h2v1h-2zM28 36h2v1h-2zM24 37h2v1h-2zM28 37h2v1h-2z"/>
  <path fill="#DAEDE9" d="M30 8h2v1h-2zM30 9h2v1h-2zM30 10h2v1h-2zM30 11h2v1h-2zM30 12h2v1h-2zM30 13h2v1h-2zM30 14h2v1h-2zM30 15h2v1h-2zM30 16h2v1h-2zM30 17h2v1h-2zM30 18h2v1h-2zM30 19h2v1h-2zM30 20h2v1h-2zM30 21h2v1h-2zM30 22h2v1h-2zM30 23h2v1h-2zM30 24h2v1h-2zM30 25h2v1h-2zM30 30h2v1h-2zM30 31h2v1h-2zM30 32h2v1h-2zM30 33h2v1h-2zM30 40h2v1h-2zM30 41h2v1h-2zM30 42h2v1h-2zM30 43h2v1h-2zM30 44h2v1h-2zM30 45h2v1h-2zM30 46h2v1h-2zM30 47h2v1h-2zM30 48h2v1h-2zM30 49h2v1h-2zM30 50h2v1h-2zM30 51h2v1h-2zM30 52h2v1h-2zM30 53h2v1h-2z"/>
  <path fill="#DBEDB5" d="M28 26h2v1h-2zM28 27h2v1h-2z"/>
  <path fill="#DCF4FB" d="M40 32h2v1h-2zM40 33h2v1h-2zM34 34h6v1h-6zM34 35h6v1h-6z"/>
  <path fill="#DDEEB9" d="M24 26h2v1h-2zM24 27h2v1h-2zM10 32h2v1h-2zM10 33h2v1h-2z"/>
  <path fill="#E0C4FF" d="M50 28h2v1h-2zM50 29h2v1h-2z"/>
  <path fill="#E0DEF6" d="M56 36h2v1h-2zM56 37h2v1h-2z"/>
  <path fill="#E0FFFC" d="M42 30h2v1h-2zM42 31h2v1h-2zM38 32h2v1h-2zM38 33h2v1h-2z"/>
  <path fill="#E1DEED" d="M20 46h2v1h-2zM20 47h2v1h-2zM22 48h2v1h-2zM22 49h2v1h-2zM24 50h4v1h-4zM24 51h4v1h-4zM28 52h2v1h-2zM28 53h2v1h-2z"/>
  <path fill="#E1E7EE" d="M32 54h2v1h-2zM32 55h2v1h-2z"/>
  <path fill="#E2AFFF" d="M48 28h2v1h-2zM48 29h2v1h-2z"/>
  <path fill="#E2E0F6" d="M52 32h2v1h-2zM52 33h2v1h-2zM46 38h6v1h-6zM46 39h6v1h-6zM38 40h2v1h-2zM42 40h2v1h-2zM46 40h2v1h-2zM38 41h2v1h-2zM42 41h2v1h-2zM46 41h2v1h-2zM36 42h2v1h-2zM40 42h2v1h-2zM44 42h2v1h-2zM36 43h2v1h-2zM40 43h2v1h-2zM44 43h2v1h-2zM38 44h2v1h-2zM38 45h2v1h-2z"/>
  <path fill="#E2F0EC" d="M28 42h2v1h-2zM28 43h2v1h-2zM26 44h2v1h-2zM26 45h2v1h-2zM28 46h2v1h-2zM28 47h2v1h-2z"/>
  <path fill="#E3E1F3" d="M36 12h2v1h-2zM36 13h2v1h-2z"/>
  <path fill="#E4F0B6" d="M24 32h2v1h-2zM24 33h2v1h-2z"/>
  <path fill="#E6D1D9" d="M26 42h2v1h-2zM26 43h2v1h-2zM24 44h2v1h-2zM24 45h2v1h-2zM26 46h2v1h-2zM26 47h2v1h-2z"/>
  <path fill="#E7F7FA" d="M48 26h2v1h-2zM48 27h2v1h-2z"/>
  <path fill="#E8CEF5" d="M44 32h2v1h-2zM48 32h2v1h-2zM44 33h2v1h-2zM48 33h2v1h-2zM40 34h2v1h-2zM40 35h2v1h-2z"/>
  <path fill="#E8F2B3" d="M18 28h2v1h-2zM18 29h2v1h-2zM12 30h2v1h-2zM12 31h2v1h-2z"/>
  <path fill="#E8F4F1" d="M30 6h2v1h-2zM30 7h2v1h-2zM30 54h2v1h-2zM30 55h2v1h-2z"/>
  <path fill="#EAB6C8" d="M22 38h2v1h-2zM26 38h2v1h-2zM22 39h2v1h-2zM26 39h2v1h-2zM20 40h2v1h-2zM24 40h4v1h-4zM20 41h2v1h-2zM24 41h4v1h-4zM18 42h2v1h-2zM22 42h4v1h-4zM18 43h2v1h-2zM22 43h4v1h-4zM20 44h2v1h-2zM20 45h2v1h-2z"/>
  <path fill="#EAFFFD" d="M46 24h2v1h-2zM46 25h2v1h-2zM42 26h6v1h-6zM42 27h6v1h-6zM42 28h2v1h-2zM42 29h2v1h-2z"/>
  <path fill="#EBFAFE" d="M34 36h2v1h-2zM34 37h2v1h-2z"/>
  <path fill="#EBFFE2" d="M38 28h4v1h-4zM38 29h4v1h-4zM38 30h2v1h-2zM38 31h2v1h-2z"/>
  <path fill="#ECFCFD" d="M32 38h2v1h-2zM32 39h2v1h-2z"/>
  <path fill="#EDECF9" d="M54 38h2v1h-2zM54 39h2v1h-2z"/>
  <path fill="#F0EDFB" d="M36 40h2v1h-2zM36 41h2v1h-2zM34 42h2v1h-2zM34 43h2v1h-2zM36 44h2v1h-2zM36 45h2v1h-2zM34 46h4v1h-4zM34 47h4v1h-4zM34 48h4v1h-4zM34 49h4v1h-4zM34 50h2v1h-2zM34 51h2v1h-2z"/>
  <path fill="#F1EDEE" d="M28 40h2v1h-2zM28 41h2v1h-2z"/>
  <path fill="#F1EFF4" d="M32 36h2v1h-2zM32 37h2v1h-2z"/>
  <path fill="#F1FFEB" d="M44 22h2v1h-2zM44 23h2v1h-2zM42 24h2v1h-2zM42 25h2v1h-2zM40 26h2v1h-2zM40 27h2v1h-2z"/>
  <path fill="#F2D3DE" d="M14 42h2v1h-2zM14 43h2v1h-2zM16 44h4v1h-4zM16 45h4v1h-4z"/>
  <path fill="#F2FFF2" d="M36 32h2v1h-2zM36 33h2v1h-2z"/>
  <path fill="#F2FFF3" d="M40 30h2v1h-2zM40 31h2v1h-2z"/>
  <path fill="#F2FFFD" d="M46 22h2v1h-2zM46 23h2v1h-2zM48 24h2v1h-2zM48 25h2v1h-2z"/>
  <path fill="#F4F2FC" d="M40 40h2v1h-2zM44 40h2v1h-2zM48 40h2v1h-2zM40 41h2v1h-2zM44 41h2v1h-2zM48 41h2v1h-2zM38 42h2v1h-2zM42 42h2v1h-2zM46 42h2v1h-2zM38 43h2v1h-2zM42 43h2v1h-2zM46 43h2v1h-2zM40 44h4v1h-4zM40 45h4v1h-4zM38 46h4v1h-4zM38 47h4v1h-4zM38 48h2v1h-2zM38 49h2v1h-2z"/>
  <path fill="#F4FDFE" d="M46 34h2v1h-2zM46 35h2v1h-2zM36 36h2v1h-2zM40 36h2v1h-2zM36 37h2v1h-2zM40 37h2v1h-2z"/>
  <path fill="#F5F56A" d="M26 26h2v1h-2zM26 27h2v1h-2zM24 28h2v1h-2zM24 29h2v1h-2zM18 30h2v1h-2zM18 31h2v1h-2zM10 34h2v1h-2zM10 35h2v1h-2z"/>
  <path fill="#F5F8F6" d="M30 38h2v1h-2zM30 39h2v1h-2z"/>
  <path fill="#F5FEFE" d="M30 36h2v1h-2zM30 37h2v1h-2z"/>
  <path fill="#F6DEFF" d="M46 32h2v1h-2zM46 33h2v1h-2zM44 34h2v1h-2zM44 35h2v1h-2z"/>
  <path fill="#F6F4FC" d="M36 50h2v1h-2zM36 51h2v1h-2z"/>
  <path fill="#F6FFF3" d="M44 20h2v1h-2zM44 21h2v1h-2z"/>
  <path fill="#F6FFF7" d="M44 24h2v1h-2zM44 25h2v1h-2zM44 28h2v1h-2zM44 29h2v1h-2z"/>
  <path fill="#F7F3FA" d="M36 10h2v1h-2zM36 11h2v1h-2z"/>
  <path fill="#F7F784" d="M12 32h2v1h-2zM12 33h2v1h-2z"/>
  <path fill="#F8F7FD" d="M52 38h2v1h-2zM52 39h2v1h-2zM50 40h2v1h-2zM50 41h2v1h-2zM48 42h2v1h-2zM48 43h2v1h-2zM44 44h4v1h-4zM44 45h4v1h-4zM42 46h2v1h-2zM42 47h2v1h-2zM40 48h2v1h-2zM40 49h2v1h-2zM38 50h2v1h-2zM38 51h2v1h-2zM34 52h2v1h-2zM34 53h2v1h-2z"/>
  <path fill="#F9E8FF" d="M50 30h2v1h-2zM50 31h2v1h-2z"/>
  <path fill="#F9EAFF" d="M42 34h2v1h-2zM42 35h2v1h-2z"/>
  <path fill="#F9F9AA" d="M28 18h2v1h-2zM28 19h2v1h-2zM26 20h2v1h-2zM26 21h2v1h-2zM20 22h2v1h-2zM24 22h2v1h-2zM28 22h2v1h-2zM20 23h2v1h-2zM24 23h2v1h-2zM28 23h2v1h-2zM18 24h2v1h-2zM22 24h6v1h-6zM18 25h2v1h-2zM22 25h6v1h-6zM16 26h8v1h-8zM16 27h8v1h-8zM14 28h4v1h-4zM20 28h2v1h-2zM14 29h4v1h-4zM20 29h2v1h-2zM14 30h2v1h-2zM14 31h2v1h-2z"/>
  <path fill="#F9FBFD" d="M28 38h2v1h-2zM28 39h2v1h-2z"/>
  <path fill="#FBDCAA" d="M24 20h2v1h-2zM28 20h2v1h-2zM24 21h2v1h-2zM28 21h2v1h-2zM22 22h2v1h-2zM26 22h2v1h-2zM22 23h2v1h-2zM26 23h2v1h-2zM16 24h2v1h-2zM20 24h2v1h-2zM16 25h2v1h-2zM20 25h2v1h-2z"/>
  <path fill="#FBE1AA" d="M24 16h2v1h-2zM28 16h2v1h-2zM24 17h2v1h-2zM28 17h2v1h-2zM22 18h2v1h-2zM26 18h2v1h-2zM22 19h2v1h-2zM26 19h2v1h-2zM20 20h2v1h-2zM20 21h2v1h-2zM18 22h2v1h-2zM18 23h2v1h-2z"/>
  <path fill="#FBFBCC" d="M28 24h2v1h-2zM28 25h2v1h-2zM14 26h2v1h-2zM14 27h2v1h-2zM12 28h2v1h-2zM12 29h2v1h-2zM10 30h2v1h-2zM10 31h2v1h-2zM8 32h2v1h-2zM8 33h2v1h-2zM6 34h2v1h-2zM6 35h2v1h-2z"/>
  <path fill="#FCFDEA" d="M8 38h2v1h-2zM8 39h2v1h-2zM12 40h2v1h-2zM12 41h2v1h-2z"/>
  <path fill="#FDC4AA" d="M28 10h2v1h-2zM28 11h2v1h-2zM28 12h2v1h-2zM28 13h2v1h-2zM26 14h4v1h-4zM26 15h4v1h-4zM26 16h2v1h-2zM26 17h2v1h-2zM24 18h2v1h-2zM24 19h2v1h-2zM22 20h2v1h-2zM22 21h2v1h-2z"/>
  <path fill="#FDDBCC" d="M28 8h2v1h-2zM28 9h2v1h-2zM26 10h2v1h-2zM26 11h2v1h-2zM26 12h2v1h-2zM26 13h2v1h-2zM24 14h2v1h-2zM24 15h2v1h-2zM22 16h2v1h-2zM22 17h2v1h-2zM20 18h2v1h-2zM20 19h2v1h-2zM18 20h2v1h-2zM18 21h2v1h-2zM16 22h2v1h-2zM16 23h2v1h-2zM14 24h2v1h-2zM14 25h2v1h-2z"/>
  <path fill="#FDFDBB" d="M6 36h2v1h-2zM6 37h2v1h-2z"/>
  <path fill="#FFC1D8" d="M36 26h2v1h-2zM36 27h2v1h-2zM34 30h2v1h-2zM34 31h2v1h-2z"/>
  <path fill="#FFCFE4" d="M32 30h2v1h-2zM32 31h2v1h-2z"/>
  <path fill="#FFD4E4" d="M40 20h2v1h-2zM40 21h2v1h-2zM38 24h2v1h-2zM38 25h2v1h-2z"/>
  <path fill="#FFDBF0" d="M34 28h2v1h-2zM34 29h2v1h-2z"/>
  <path fill="#FFDFBB" d="M32 32h2v1h-2zM32 33h2v1h-2z"/>
  <path fill="#FFE5EE" d="M42 18h2v1h-2zM42 19h2v1h-2z"/>
  <path fill="#FFE6F4" d="M40 18h2v1h-2zM40 19h2v1h-2zM38 22h2v1h-2zM38 23h2v1h-2z"/>
  <path fill="#FFE7D8" d="M36 28h2v1h-2zM36 29h2v1h-2zM36 30h2v1h-2zM36 31h2v1h-2z"/>
  <path fill="#FFE9D0" d="M32 34h2v1h-2zM32 35h2v1h-2z"/>
  <path fill="#FFEEE4" d="M42 20h2v1h-2zM42 21h2v1h-2zM40 22h4v1h-4zM40 23h4v1h-4zM40 24h2v1h-2zM40 25h2v1h-2zM38 26h2v1h-2zM38 27h2v1h-2z"/>
  <path fill="#FFF0EE" d="M34 32h2v1h-2zM34 33h2v1h-2z"/>
  <path fill="#FFF0F8" d="M38 14h2v1h-2zM38 15h2v1h-2zM40 16h2v1h-2zM40 17h2v1h-2z"/>
  <path fill="#FFF9E2" d="M30 34h2v1h-2zM30 35h2v1h-2z"/>
</svg>
